<svg width="15" height="14" viewBox="0 0 15 14" fill="none" xmlns="http://www.w3.org/2000/svg">
<g clip-path="url(#clip0)">
<path d="M10.6381 5.39586C10.5208 5.39586 10.4072 5.34983 10.3243 5.26758L9.28864 4.24678C9.11525 4.07578 9.11525 3.79871 9.28864 3.62781C9.46204 3.45691 9.74315 3.45691 9.91655 3.62781L10.6138 4.31439L12.0775 2.63147C12.2378 2.44893 12.5171 2.42671 12.7036 2.58426C12.89 2.7417 12.9114 3.01759 12.7515 3.20142L10.976 5.24301C10.8955 5.33519 10.7795 5.39063 10.6559 5.39533C10.6499 5.39586 10.6439 5.39586 10.6381 5.39586Z" fill="#525151"/>
<path d="M6.49507 14C5.27178 14 4.27563 13.0188 4.27563 11.8125C4.27563 11.571 4.4745 11.375 4.71952 11.375C4.96455 11.375 5.16341 11.571 5.16341 11.8125C5.16341 12.5365 5.76118 13.125 6.49507 13.125C7.22896 13.125 7.82673 12.5365 7.82673 11.8125C7.82673 11.571 8.02559 11.375 8.27062 11.375C8.51564 11.375 8.7145 11.571 8.7145 11.8125C8.7145 13.0188 7.71847 14 6.49507 14Z" fill="#525151"/>
<path d="M11.3779 12.2501H1.61236C1.04125 12.2501 0.57666 11.7922 0.57666 11.2293C0.57666 10.9305 0.708656 10.6477 0.938835 10.4534C0.953682 10.4406 0.969613 10.4289 0.986194 10.4184C1.855 9.6711 2.35221 8.59605 2.35221 7.46085V5.83337C2.35221 3.93351 3.6584 2.3025 5.52867 1.86671C5.76773 1.81245 6.00691 1.95654 6.06315 2.19227C6.11929 2.42736 5.97136 2.66299 5.73349 2.71842C4.26506 3.06022 3.23998 4.34121 3.23998 5.83337V7.46085C3.23998 8.87023 2.61316 10.2038 1.52187 11.1189C1.51298 11.126 1.50529 11.1324 1.49575 11.1388C1.47982 11.1587 1.46443 11.189 1.46443 11.2293C1.46443 11.3085 1.53195 11.3751 1.61236 11.3751H11.3779C11.4584 11.3751 11.5259 11.3085 11.5259 11.2293C11.5259 11.1884 11.5105 11.1587 11.4939 11.1388C11.4851 11.1324 11.4767 11.126 11.4685 11.1189C10.9382 10.6733 10.5197 10.1355 10.225 9.52007C10.1197 9.30186 10.2143 9.04113 10.4362 8.93731C10.66 8.83349 10.9222 8.92802 11.027 9.14613C11.2613 9.63383 11.5897 10.062 12.0052 10.4202C12.0206 10.4306 12.0367 10.4417 12.0502 10.4534C12.2817 10.6477 12.4137 10.9305 12.4137 11.2293C12.4137 11.7922 11.9491 12.2501 11.3779 12.2501Z" fill="#525151"/>
<path d="M10.934 7.5833C8.81289 7.5833 7.08708 5.88232 7.08708 3.7917C7.08708 1.70097 8.81289 0 10.934 0C13.0553 0 14.7811 1.70097 14.7811 3.7917C14.7811 5.88232 13.0553 7.5833 10.934 7.5833ZM10.934 0.875C9.30229 0.875 7.97486 2.18344 7.97486 3.7917C7.97486 5.39996 9.30229 6.7083 10.934 6.7083C12.5658 6.7083 13.8933 5.39996 13.8933 3.7917C13.8933 2.18344 12.5658 0.875 10.934 0.875Z" fill="#525151"/>
</g>
<defs>
<clipPath id="clip0">
<rect width="14.2044" height="14" fill="white" transform="translate(0.57666)"/>
</clipPath>
</defs>
</svg>
