<svg width="13" height="13" viewBox="0 0 13 13" fill="none" xmlns="http://www.w3.org/2000/svg">
<path d="M13 12.2375L9.24393 8.58534C10.029 7.67419 10.5062 6.49238 10.5062 5.20381C10.5062 2.33314 8.15098 0 5.25311 0C2.35524 0 0 2.33314 0 5.20381C0 8.07449 2.35524 10.4076 5.25311 10.4076C6.46152 10.4076 7.57371 10.0035 8.4627 9.32111L12.2457 13L13 12.2375ZM1.07756 5.20381C1.07756 2.92405 2.95175 1.06745 5.25311 1.06745C7.55447 1.06745 9.42866 2.92405 9.42866 5.20381C9.42866 7.48358 7.55447 9.34018 5.25311 9.34018C2.95175 9.34018 1.07756 7.48358 1.07756 5.20381Z" fill="#0070D2"/>
</svg>
