<svg width="12" height="12" viewBox="0 0 12 12" fill="none" xmlns="http://www.w3.org/2000/svg">
<path d="M6 12C4.48439 12 2.97225 12 1.45665 12C0.582659 12 0 11.4191 0 10.5426C0 7.51304 0 4.48 0 1.45043C0 0.587826 0.586127 0 1.44971 0C4.48439 0 7.51561 0 10.5503 0C11.4139 0 12 0.584348 12 1.44696C12 4.48348 12 7.52 12 10.5565C12 11.4087 11.4104 11.9965 10.5607 12C9.04162 12 7.52254 12 6 12ZM6.00347 0.754783C4.50173 0.754783 3 0.754783 1.49827 0.754783C0.984971 0.754783 0.756069 0.98087 0.756069 1.49217C0.756069 4.49391 0.756069 7.49565 0.756069 10.4974C0.756069 11.0261 0.978035 11.2487 1.50173 11.2487C4.50173 11.2487 7.49827 11.2487 10.4983 11.2487C11.0254 11.2487 11.2509 11.0261 11.2509 10.5009C11.2509 7.49913 11.2509 4.49739 11.2509 1.49565C11.2509 0.98087 11.0254 0.751304 10.5156 0.751304C9.00694 0.751304 7.5052 0.754783 6.00347 0.754783Z" fill="#0070D2"/>
<path d="M6.378 5.62775C6.51326 5.62775 6.62771 5.62775 6.74216 5.62775C7.35603 5.62775 7.96644 5.62775 8.58031 5.62775C8.83349 5.62775 8.99303 5.77384 8.9965 5.99297C8.99996 6.21905 8.83349 6.36862 8.57337 6.36862C7.90748 6.36862 7.24505 6.36862 6.57916 6.36862C6.51673 6.36862 6.4543 6.36862 6.378 6.36862C6.378 6.4521 6.378 6.51471 6.378 6.57731C6.378 7.23123 6.378 7.88862 6.378 8.54253C6.378 8.82427 6.22193 9.00514 5.99303 9.00166C5.7676 8.99471 5.62193 8.81731 5.62193 8.54601C5.62193 7.8921 5.62193 7.23471 5.62193 6.58079C5.62193 6.51818 5.62193 6.45558 5.62193 6.3721C5.54216 6.3721 5.4832 6.3721 5.42078 6.3721C4.74448 6.3721 4.06818 6.3721 3.39188 6.3721C3.18725 6.3721 3.03812 6.24688 3.0069 6.06601C2.97569 5.88862 3.07627 5.70775 3.24621 5.6521C3.31211 5.63123 3.38147 5.63123 3.45083 5.63123C4.10286 5.63123 4.75835 5.63123 5.41037 5.63123C5.4728 5.63123 5.53523 5.63123 5.61153 5.63123C5.615 5.55471 5.61846 5.49558 5.61846 5.43297C5.61846 4.76514 5.61846 4.10079 5.61846 3.43297C5.61846 3.2034 5.72945 3.05036 5.92713 3.00862C6.16644 2.95644 6.37453 3.15123 6.37453 3.43297C6.378 4.06949 6.37453 4.70949 6.37453 5.34601C6.378 5.42601 6.378 5.51297 6.378 5.62775Z" fill="#0070D2"/>
</svg>
