<svg width="9" height="13" viewBox="0 0 9 13" fill="none" xmlns="http://www.w3.org/2000/svg">
<path d="M4.50289 12.089C4.32135 12.089 4.15892 12.0007 4.06655 11.8546C3.4869 10.9534 0.58543 6.44123 0.451664 6.18244L0.438924 6.15808C0.180945 5.64049 0.0344384 5.08941 0.00577412 4.51702C-0.0579244 3.26263 0.407075 2.09653 1.31796 1.23185C2.22885 0.370219 3.45186 -0.0651646 4.76724 0.00790672C7.14 0.138826 9 2.0265 9 4.30085C9 5.45477 8.48723 6.27073 7.86935 7.14759L4.94878 11.8485C4.85641 11.9977 4.69398 12.089 4.51244 12.089C4.50607 12.089 4.50607 12.089 4.50289 12.089ZM4.48378 0.729486C3.48053 0.729486 2.5569 1.08875 1.85622 1.74944C1.10139 2.46493 0.716012 3.43313 0.770156 4.48048C0.795635 4.95545 0.916663 5.41214 1.13005 5.84144L1.14279 5.86275C1.25108 6.06674 3.13655 9.00786 4.50289 11.1361L7.22281 6.75787L7.24192 6.73047C7.9012 5.79881 8.23562 5.16553 8.23562 4.30389C8.23562 2.41622 6.69093 0.851272 4.72265 0.741665C4.63984 0.732531 4.56022 0.729486 4.48378 0.729486ZM7.23237 6.73656C7.23237 6.73961 7.23237 6.73961 7.23237 6.73656C7.23237 6.73961 7.23237 6.73961 7.23237 6.73656ZM7.25148 6.71525C7.24829 6.71525 7.24829 6.71525 7.25148 6.71525V6.71525Z" fill="#0070D2"/>
<path d="M4.50596 6.22461C3.32117 6.22461 2.35614 5.30208 2.35614 4.16948C2.35614 3.03687 3.32117 2.11434 4.50596 2.11434C5.69075 2.11434 6.65579 3.03687 6.65579 4.16948C6.65579 5.30208 5.69075 6.22461 4.50596 6.22461ZM4.50596 2.84506C3.74158 2.84506 3.12052 3.43876 3.12052 4.16948C3.12052 4.90019 3.74158 5.49389 4.50596 5.49389C5.27034 5.49389 5.8914 4.90019 5.8914 4.16948C5.8914 3.43876 5.27034 2.84506 4.50596 2.84506Z" fill="#0070D2"/>
</svg>
