<svg width="13" height="10" viewBox="0 0 13 10" fill="none" xmlns="http://www.w3.org/2000/svg">
<path d="M12.3247 2.42187C12.3247 2.22656 12.2466 2.03125 12.106 1.89062L11.0435 0.828125C10.9028 0.6875 10.7075 0.609375 10.5122 0.609375C10.3169 0.609375 10.1216 0.6875 9.98096 0.828125L4.85596 5.96094L2.55908 3.65625C2.41846 3.51562 2.22314 3.4375 2.02783 3.4375C1.83252 3.4375 1.63721 3.51562 1.49658 3.65625L0.434082 4.71875C0.293457 4.85937 0.215332 5.05469 0.215332 5.25C0.215332 5.44531 0.293457 5.64062 0.434082 5.78125L3.26221 8.60937L4.32471 9.67187C4.46533 9.8125 4.66064 9.89062 4.85596 9.89062C5.05127 9.89062 5.24658 9.8125 5.38721 9.67187L6.44971 8.60937L12.106 2.95312C12.2466 2.8125 12.3247 2.61719 12.3247 2.42187Z" fill="black"/>
</svg>
